PathFileType	4	(X/Y/Z)	 3.0Hz3min.trc
DataRate	CameraRate	NumFrames	NumMarkers	Units	OrigDataRate	OrigDataStartFrame	OrigNumFrames
200	200	8	43	m	200	251	1000
Frame#	Time	C7			LSH			RSH			MAN			RASI			LASI			HIPR			HIPL			RPSI			LPSI			COX			RTHI1			RTHI2			RTHI3			RTHI4			RLKN			RMKN			RSHA1			RSHA2			RSHA3			RSHA4			RLMAL			RMMAL			RHEEL			RMET5			RMET1			RTOE			LTHI1			LTHI2			LTHI3			LTHI4			LLKN			LMKN			LSHA1			LSHA2			LSHA3			LSHA4			LLMAL			LMMAL			LHEEL			LMET5			LMET1			LTOE			
		X1	Y1	Z1	X2	Y2	Z2	X3	Y3	Z3	X4	Y4	Z4	X5	Y5	Z5	X6	Y6	Z6	X7	Y7	Z7	X8	Y8	Z8	X9	Y9	Z9	X10	Y10	Z10	X11	Y11	Z11	X12	Y12	Z12	X13	Y13	Z13	X14	Y14	Z14	X15	Y15	Z15	X16	Y16	Z16	X17	Y17	Z17	X18	Y18	Z18	X19	Y19	Z19	X20	Y20	Z20	X21	Y21	Z21	X22	Y22	Z22	X23	Y23	Z23	X24	Y24	Z24	X25	Y25	Z25	X26	Y26	Z26	X27	Y27	Z27	X28	Y28	Z28	X29	Y29	Z29	X30	Y30	Z30	X31	Y31	Z31	X32	Y32	Z32	X33	Y33	Z33	X34	Y34	Z34	X35	Y35	Z35	X36	Y36	Z36	X37	Y37	Z37	X38	Y38	Z38	X39	Y39	Z39	X40	Y40	Z40	X41	Y41	Z41	X42	Y42	Z42	X43	Y43	Z43	
251	1.2550	-0.259838	1.521588	-0.557067	-0.213991	1.480205	-0.764349	-0.161430	1.470338	-0.360548	-0.127663	1.433545	-0.566810	-0.181784	0.990029	-0.445514	-0.196124	0.997019	-0.683857	-0.269698	1.031410	-0.387243	-0.289755	1.023413	-0.723719	-0.372437	1.022296	-0.503071	-0.373617	1.023198	-0.605617	-0.375830	1.020334	-0.553122	-0.271593	0.719672	-0.365549	-0.264429	0.659888	-0.364732	-0.200235	0.664029	-0.357369	-0.198924	0.725652	-0.357748	-0.250630	0.467374	-0.372326	-0.246367	0.456007	-0.502776	-0.344107	0.319694	-0.355625	-0.363243	0.281478	-0.360989	-0.305690	0.261454	-0.362412	-0.294133	0.299310	-0.362188	-0.405695	0.089317	-0.378628	-0.378301	0.091943	-0.471795	-0.465402	0.058307	-0.422526	-0.296905	0.029633	-0.347188	-0.251978	0.044278	-0.432805	-0.223748	0.033811	-0.427827	-0.281226	0.732208	-0.745611	-0.271372	0.671433	-0.747611	-0.207715	0.676216	-0.759950	-0.210345	0.736071	-0.760303	-0.254477	0.463679	-0.739021	-0.227375	0.450999	-0.616498	-0.348153	0.307376	-0.752059	-0.359811	0.264135	-0.745745	-0.308601	0.249247	-0.739774	-0.290831	0.286339	-0.744876	-0.395560	0.088056	-0.737456	-0.380562	0.089487	-0.643525	-0.465322	0.060496	-0.694667	-0.288776	0.028538	-0.761295	-0.256286	0.044423	-0.674832	-0.228780	0.033178	-0.675528	
252	1.2600	-0.259976	1.521279	-0.557156	-0.213968	1.480165	-0.764471	-0.161624	1.470187	-0.360536	-0.127503	1.433291	-0.566865	-0.181741	0.989607	-0.445607	-0.196097	0.996509	-0.684037	-0.270281	1.030597	-0.387077	-0.290392	1.022656	-0.723834	-0.372313	1.022367	-0.503194	-0.373470	1.023219	-0.605648	-0.375693	1.020350	-0.553164	-0.271765	0.719621	-0.365800	-0.264648	0.659830	-0.365005	-0.200458	0.663905	-0.357613	-0.199094	0.725535	-0.357978	-0.251033	0.467267	-0.372603	-0.246552	0.455806	-0.503060	-0.344405	0.319500	-0.356003	-0.363506	0.281274	-0.361369	-0.305943	0.261282	-0.362782	-0.294445	0.299180	-0.362502	-0.405811	0.089091	-0.378946	-0.378311	0.091660	-0.472137	-0.465438	0.058030	-0.422911	-0.296981	0.029655	-0.347311	-0.251934	0.044252	-0.432875	-0.223718	0.033807	-0.427847	-0.281940	0.732134	-0.745213	-0.272175	0.671316	-0.747155	-0.208591	0.676025	-0.759892	-0.211112	0.735870	-0.760236	-0.255144	0.463406	-0.738779	-0.228249	0.450846	-0.616106	-0.348556	0.306945	-0.751713	-0.360168	0.263686	-0.745381	-0.308945	0.248852	-0.739415	-0.291213	0.285968	-0.744535	-0.395765	0.087671	-0.737085	-0.380669	0.089024	-0.643165	-0.465456	0.059970	-0.694251	-0.288854	0.028571	-0.761191	-0.256288	0.044404	-0.674740	-0.228774	0.033174	-0.675524	
253	1.2650	-0.260099	1.521364	-0.557252	-0.213898	1.480525	-0.764584	-0.161837	1.470434	-0.360497	-0.127389	1.433535	-0.566894	-0.181626	0.989645	-0.445775	-0.196019	0.996447	-0.684170	-0.270772	1.030683	-0.387095	-0.290790	1.022866	-0.723924	-0.372116	1.023026	-0.503358	-0.373139	1.023897	-0.605730	-0.375433	1.021015	-0.553249	-0.271861	0.719935	-0.366047	-0.264791	0.660143	-0.365259	-0.200595	0.664156	-0.357911	-0.199183	0.725793	-0.358279	-0.251380	0.467539	-0.372865	-0.246655	0.455931	-0.503319	-0.344628	0.319668	-0.356318	-0.363683	0.281429	-0.361678	-0.306116	0.261495	-0.363104	-0.294655	0.299433	-0.362734	-0.405801	0.089179	-0.379202	-0.378187	0.091705	-0.472373	-0.465367	0.058160	-0.423215	-0.297007	0.029702	-0.347452	-0.251863	0.044231	-0.432927	-0.223665	0.033807	-0.427861	-0.282545	0.732398	-0.744840	-0.272885	0.671551	-0.746746	-0.209344	0.676157	-0.759758	-0.211753	0.736002	-0.760102	-0.255726	0.463524	-0.738529	-0.229154	0.451133	-0.615658	-0.348919	0.306864	-0.751369	-0.360473	0.263592	-0.745026	-0.309237	0.248821	-0.739072	-0.291546	0.285960	-0.744211	-0.395831	0.087596	-0.736749	-0.380626	0.088872	-0.642868	-0.465464	0.059860	-0.693847	-0.288904	0.028611	-0.761043	-0.256242	0.044390	-0.674663	-0.228734	0.033166	-0.675517	
254	1.2700	-0.260200	1.521864	-0.557348	-0.213789	1.481286	-0.764684	-0.162054	1.471051	-0.360441	-0.127337	1.434250	-0.566908	-0.181433	0.990158	-0.446016	-0.195884	0.996843	-0.684268	-0.271096	1.031637	-0.387290	-0.290899	1.023980	-0.724012	-0.371869	1.024179	-0.503553	-0.372690	1.025095	-0.605863	-0.375087	1.022199	-0.553383	-0.271900	0.720623	-0.366292	-0.264878	0.660833	-0.365499	-0.200667	0.664784	-0.358243	-0.199208	0.726425	-0.358630	-0.251687	0.468186	-0.373100	-0.246742	0.456406	-0.503540	-0.344786	0.320192	-0.356566	-0.363769	0.281942	-0.361893	-0.306203	0.262082	-0.363349	-0.294776	0.300027	-0.362924	-0.405686	0.089588	-0.379371	-0.377932	0.092067	-0.472497	-0.465197	0.058686	-0.423424	-0.296988	0.029770	-0.347614	-0.251767	0.044216	-0.432958	-0.223594	0.033811	-0.427868	-0.283018	0.732995	-0.744518	-0.273462	0.672138	-0.746414	-0.209948	0.676619	-0.759567	-0.212246	0.736475	-0.759920	-0.256214	0.464015	-0.738290	-0.230035	0.451830	-0.615226	-0.349259	0.307136	-0.751046	-0.360748	0.263851	-0.744692	-0.309486	0.249155	-0.738777	-0.291850	0.286318	-0.743923	-0.395774	0.087809	-0.736462	-0.380445	0.089035	-0.642634	-0.465354	0.060141	-0.693468	-0.288930	0.028654	-0.760867	-0.256159	0.044382	-0.674603	-0.228667	0.033156	-0.675510	
255	1.2750	-0.260273	1.522783	-0.557435	-0.213652	1.482448	-0.764768	-0.162282	1.472055	-0.360374	-0.127322	1.435410	-0.566909	-0.181169	0.991148	-0.446314	-0.195700	0.997695	-0.684351	-0.271193	1.033366	-0.387623	-0.290707	1.025873	-0.724100	-0.371590	1.025700	-0.503749	-0.372182	1.026683	-0.606034	-0.374695	1.023772	-0.553561	-0.271896	0.721683	-0.366538	-0.264925	0.661892	-0.365723	-0.200700	0.665781	-0.358590	-0.199187	0.727427	-0.359007	-0.251966	0.469203	-0.373283	-0.246871	0.457255	-0.503717	-0.344887	0.321058	-0.356738	-0.363789	0.282804	-0.362025	-0.306216	0.263028	-0.363517	-0.294809	0.300999	-0.363002	-0.405432	0.090280	-0.379445	-0.377558	0.092748	-0.472516	-0.464934	0.059624	-0.423553	-0.296930	0.029860	-0.347798	-0.251650	0.044206	-0.432970	-0.223508	0.033820	-0.427869	-0.283355	0.733926	-0.744265	-0.273903	0.673062	-0.746177	-0.210387	0.677410	-0.759340	-0.212578	0.737285	-0.759706	-0.256645	0.464862	-0.738078	-0.230874	0.452898	-0.614825	-0.349588	0.307749	-0.750757	-0.361003	0.264446	-0.744398	-0.309705	0.249836	-0.738543	-0.292140	0.287029	-0.743688	-0.395627	0.088296	-0.736246	-0.380149	0.089492	-0.642465	-0.465136	0.060778	-0.693124	-0.288934	0.028704	-0.760671	-0.256047	0.044378	-0.674565	-0.228583	0.033148	-0.675504	
256	1.2800	-0.260315	1.524123	-0.557506	-0.213514	1.484013	-0.764844	-0.162530	1.473425	-0.360299	-0.127342	1.436969	-0.566910	-0.180843	0.992607	-0.446650	-0.195483	0.998993	-0.684445	-0.271051	1.035735	-0.388087	-0.290241	1.028382	-0.724178	-0.371287	1.027515	-0.503948	-0.371658	1.028560	-0.606233	-0.374279	1.025646	-0.553774	-0.271869	0.723100	-0.366780	-0.264953	0.663315	-0.365927	-0.200710	0.667139	-0.358937	-0.199137	0.728782	-0.359393	-0.252241	0.470583	-0.373416	-0.247094	0.458507	-0.503856	-0.344936	0.322256	-0.356807	-0.363752	0.283988	-0.362075	-0.306163	0.264318	-0.363595	-0.294797	0.302306	-0.363027	-0.405042	0.091237	-0.379423	-0.377075	0.093749	-0.472427	-0.464585	0.060945	-0.423588	-0.296840	0.029962	-0.347995	-0.251519	0.044204	-0.432963	-0.223415	0.033832	-0.427863	-0.283561	0.735174	-0.744099	-0.274210	0.674323	-0.746060	-0.210662	0.678527	-0.759094	-0.212760	0.738433	-0.759475	-0.257073	0.466048	-0.737897	-0.231651	0.454285	-0.614498	-0.349919	0.308678	-0.750515	-0.361246	0.265359	-0.744159	-0.309905	0.250857	-0.738377	-0.292421	0.288078	-0.743528	-0.395398	0.089040	-0.736108	-0.379758	0.090227	-0.642377	-0.464830	0.061743	-0.692832	-0.288910	0.028764	-0.760461	-0.255915	0.044378	-0.674546	-0.228489	0.033142	-0.675503	
257	1.2850	-0.260345	1.525854	-0.557568	-0.213374	1.485964	-0.764898	-0.162732	1.475176	-0.360231	-0.127397	1.438891	-0.566919	-0.180469	0.994500	-0.447002	-0.195243	1.000704	-0.684564	-0.270682	1.038586	-0.388654	-0.289556	1.031330	-0.724231	-0.370960	1.029576	-0.504148	-0.371139	1.030678	-0.606455	-0.373853	1.027777	-0.554008	-0.271834	0.724862	-0.367007	-0.264978	0.665073	-0.366105	-0.200719	0.668835	-0.359267	-0.199077	0.730471	-0.359767	-0.252534	0.472321	-0.373485	-0.247437	0.460150	-0.503956	-0.344952	0.323787	-0.356785	-0.363685	0.285498	-0.362044	-0.306071	0.265950	-0.363574	-0.294778	0.303927	-0.363038	-0.404565	0.092430	-0.379306	-0.376484	0.095037	-0.472230	-0.464135	0.062620	-0.423531	-0.296721	0.030076	-0.348201	-0.251380	0.044205	-0.432934	-0.223322	0.033847	-0.427846	-0.283652	0.736732	-0.744027	-0.274397	0.675887	-0.746053	-0.210796	0.679963	-0.758848	-0.212812	0.739896	-0.759242	-0.257547	0.467562	-0.737764	-0.232376	0.455956	-0.614258	-0.350257	0.309908	-0.750329	-0.361484	0.266568	-0.743980	-0.310082	0.252200	-0.738287	-0.292701	0.289435	-0.743444	-0.395082	0.090026	-0.736048	-0.379271	0.091229	-0.642372	-0.464437	0.063021	-0.692585	-0.288859	0.028835	-0.760244	-0.255768	0.044374	-0.674546	-0.228395	0.033136	-0.675503	
258	1.2900	-0.260376	1.527948	-0.557617	-0.213251	1.488294	-0.764934	-0.162880	1.477290	-0.360175	-0.127486	1.441144	-0.566946	-0.180063	0.996787	-0.447345	-0.194991	1.002784	-0.684716	-0.270122	1.041795	-0.389283	-0.288713	1.034561	-0.724263	-0.370611	1.031875	-0.504355	-0.370634	1.033012	-0.606694	-0.373426	1.030140	-0.554257	-0.271805	0.726941	-0.367200	-0.265012	0.667145	-0.366244	-0.200739	0.670843	-0.359563	-0.199020	0.732473	-0.360116	-0.252857	0.474406	-0.373480	-0.247901	0.462168	-0.504014	-0.344964	0.325634	-0.356687	-0.363600	0.287312	-0.361928	-0.305972	0.267911	-0.363435	-0.294748	0.305873	-0.362955	-0.404011	0.093873	-0.379085	-0.375790	0.096603	-0.471928	-0.463609	0.064634	-0.423390	-0.296568	0.030210	-0.348411	-0.251236	0.044212	-0.432882	-0.223234	0.033862	-0.427820	-0.283655	0.738574	-0.744053	-0.274490	0.677728	-0.746123	-0.210822	0.681696	-0.758618	-0.212759	0.741652	-0.759022	-0.258111	0.469385	-0.737676	-0.233079	0.457864	-0.614110	-0.350600	0.311412	-0.750205	-0.361722	0.268037	-0.743863	-0.310242	0.253833	-0.738271	-0.292980	0.291086	-0.743440	-0.394694	0.091231	-0.736073	-0.378707	0.092476	-0.642448	-0.463958	0.064583	-0.692413	-0.288779	0.028914	-0.760029	-0.255616	0.044368	-0.674563	-0.228308	0.033132	-0.675507	
